{"title":"Amelia DVDRip(Xvid Avi)","uid":5416553,"size":2425047552,"categoryP":"video","categoryS":"movies","magnet":"?xt=urn:btih:5bf1105f0de448022d174a15d053c96dd66e41c8&amp;dn=Amelia+DVDRip%28Xvid+Avi%29&amp;tr=udp%3A%2F%2Ftracker.openbittorrent.com%3A80&amp;tr=udp%3A%2F%2Fopen.demonii.com%3A1337&amp;tr=udp%3A%2F%2Ftracker.coppersurfer.tk%3A6969&amp;tr=udp%3A%2F%2Fexodus.desync.com%3A6969","seeders":0,"leechers":1,"uploader":"2mean2die","files":-1,"time":1267945550,"description":"Hilary Swank and Richard Gere star in director Mira Nair's biopic tracing the life of famed aviator Amelia Earhart -- who made history in 1932 by becoming the first woman ever to fly solo across the Atlantic Ocean. The trip made the aviatrix a national celebrity -- with help from her publicist George Putnam (Gere), whom she fell in love with and eventually married. Their union was tested, however, as Earhart developed feelings for contemporary Gene Vidal (Ewan McGregor ), and the couple's marriage faced the ultimate tragedy years later, as Earhart's fierce independent spirit spurred her to attempt to fly around the world -- a venture that infamously shrouded her in mystery, as the pilot simply vanished after crashing into the Pacific Ocean. Christopher Eccleston and co-star in the Avalon Pictures production. ~ Jason Buchanan, All Movie Guide\n\nMovie data provided by AMG\n\n# Cast: Hilary Swank, Richard Gere, Ewan McGregor, Christopher Eccleston, Joe Anderson, Cherry Jones\n# Director: Mira Nair\n# Genres: Biopic [feature], Drama\n\nComplete name                    : Amelia\nFormat                           : AVI\nFormat/Info                      : Audio Video Interleave\nFile size                        : 1.28 GiB\nDuration                         : 1h 51mn\nOverall bit rate                 : 1 641 Kbps\n\nVideo\nID                               : 0\nFormat                           : MPEG-4 Visual\nFormat profile                   : Simple@L3\nFormat settings, BVOP            : Yes\nFormat settings, QPel            : No\nFormat settings, GMC             : No warppoints\nFormat settings, Matrix          : Default (H.263)\nCodec ID                         : XVID\nCodec ID/Hint                    : XviD\nDuration                         : 1h 51mn\nBit rate                         : 1 499 Kbps\nWidth                            : 640 pixels\nHeight                           : 480 pixels\nDisplay aspect ratio             : 4:3\nFrame rate                       : 29.970 fps\nResolution                       : 8 bits\nScan type                        : Progressive\nBits/(Pixel*Frame)               : 0.163\nStream size                      : 1.17 GiB (91%)\n\nAudio\nID                               : 1\nFormat                           : MPEG Audio\nFormat version                   : Version 1\nFormat profile                   : Layer 3\nFormat_Settings_Mode             : Joint stereo\nFormat_Settings_ModeExtension    : MS Stereo\nCodec ID                         : 55\nCodec ID/Hint                    : MP3\nDuration                         : 1h 51mn\nBit rate mode                    : Constant\nBit rate                         : 128 Kbps\nChannel(s)                       : 2 channels\nSampling rate                    : 44.1 KHz\nStream size                      : 102 MiB (8%)\nAlignment                        : Aligned on interleaves\nInterleave, duration             : 26 ms (0.78 video frame)\nInterleave, preload duration     : 26 ms\nWriting library                  : LAME3.97\n\n","torrent":{"xt":"urn:btih:5bf1105f0de448022d174a15d053c96dd66e41c8","amp;dn":"Amelia+DVDRip%28Xvid+Avi%29","amp;tr":["udp%3A%2F%2Ftracker.openbittorrent.com%3A80","udp%3A%2F%2Fopen.demonii.com%3A1337","udp%3A%2F%2Ftracker.coppersurfer.tk%3A6969","udp%3A%2F%2Fexodus.desync.com%3A6969"],"infoHash":"5bf1105f0de448022d174a15d053c96dd66e41c8","infoHashBuffer":{"type":"Buffer","data":[91,241,16,95,13,228,72,2,45,23,74,21,208,83,201,109,214,110,65,200]},"announce":[],"urlList":[]}}